<?xml version="1.0" encoding="UTF-8"?>
<svg id="Layer_1" data-name="Layer 1" xmlns="http://www.w3.org/2000/svg" viewBox="0 0 228.16 265.56">
  <defs>
    <style>
      .cls-1 {
        fill: #335e74;
      }

      .cls-1, .cls-2 {
        stroke-width: 0px;
      }

      .cls-2 {
        fill: #704442;
      }

      .cls-3 {
        fill: #08b181;
        font-family: BritishCastilla, 'British Castilla';
        font-size: 12px;
      }
    </style>
  </defs>
  <path class="cls-1" d="M195.19,133.16c-10.16-1.53-20.04,1.28-27.98,7.11-.56-5.44-2.69-12.22-3.58-14.89l4.23-9.07,1.8.28.71-.62s.38.05,1.53-.11c1.14-.16,1.67-1.48,1.67-1.48l9.22-1.51s1.73-1.86-.51-2.2c-2.24-.34-9.61-.72-9.61-.72l-.47-.08c2.54-2.28,7.93-7.13,10.57-9.68,3.53-3.41,13-10.69,13-10.69,1.5-.53,3.16-2.63,3.16-2.63l.82.13s4.09-8.6,2.23-14.8c-1.86-6.2-6.2-12.21-7.27-14.05-1.06-1.84-2.67-1.52-4.75-3.28-2.08-1.77-11.14-15.46-11.98-16.59-.83-1.13-5.28-3.86-5.28-3.86,0,0-.9-2.65-1.16-3.44-.26-.79-1.65-1.29-1.65-1.29l.06-.37c-1.8-5.88-9.03-5.42-10.32-7.71-1.28-2.29-4.3-1.15-4.3-1.15l-.24-2.59,1.27-2.07c4.99-.3,3.6-8.01,3.6-8.01l.12-.82c-.33-5.03-6.21-7.42-13.33-6.9-7.11.52-12.64,3.47-13.68,5.18-1.04,1.72-4.01,9-4.03,9.36-.03.36.14.53.14.53-.19,2.56,1.8,2.56,1.8,2.56l1.12-.39c-.26,1.49,1.38,2.63,1.38,2.63l.49.5-1.88,5.27s.07.09.38.42,1.99-.06,1.99-.06l.34,1.05s-.07.89.03,1.15c.1.27,1.1.48,1.1.48,0,0-.15.25-.18.61-.02.36.78,1.33.78,1.33,0,0-.31.92-.1,1.75.21.82,1.94,1.59,1.94,1.59,0,0-.16.81-.05.87.12.06,2.4,1.91,2.4,1.91,0,0-.02,3.43-.04,3.55-.01.13-3.8,7.77-3.8,7.77,0,0-.55.29-.9.66-.35.36-3.21,4.37-3.21,4.37l-4.66,3.7s-1.52.61-3.25,1.27c-1.74.66-5.72,2.9-5.72,2.9l-2.62,2.12-1.34.55s-6.52-.06-7.48-.12c-.95-.06-3.52.6-3.6.84-.08.24-1.15,3.47-1.15,3.47l-1.82,2.07-3.88,5.79-.11.73-2.68,1.86c-.84-.04-1.66-.06-2.45-.07-3.51-1.55-7.03-1.61-9.92-.05-.62.33-1.18.73-1.68,1.18-4.33,1.08-6.74,2.78-8.08,4.37-2.06,2.45-2,5.02-1.59,6.74.86,3.6,4.29,6.13,9.25,7.26-2.42,3.57-4.59,8-6.03,13.46-4.56-2.5-9.63-4.26-15.07-5.07-24.79-3.74-47.91,13.33-51.65,38.12-3.2,21.25,8.89,41.28,28.03,48.9,2.35.95,4.81,1.7,7.37,2.24.86.19,1.72.35,2.6.48.04,0,.09,0,.13.02.91.14,1.81.25,2.72.32,1.03.1,2.07.16,3.1.17.97.03,1.93.02,2.89-.02,2.42-.1,4.79-.39,7.11-.87,2.5-.5,4.94-1.22,7.29-2.13,14.7-5.69,26.02-18.88,28.53-35.59,2.43-16.09-3.92-31.48-15.45-41.32l6.15-10.45,1,.43,1.61-2.22,2.12.77,2.1-3.2c11.53,9.51,28.39,48.23,30.74,53.72l-2.01.45-3.6-.04c-1.76,1.15-1.95,4.06-1.95,4.06l-.05.91,5.77,2.63-.26,1.72.46,1.41,2.28,1.18.85-.43,9.9,4.73c-.53,3.18.79,7.41,4.44,8.4l9.48,3.84c3.31,16.3,15.69,29.35,32.09,31.82,21.39,3.22,41.52-12.76,44.98-35.69,3.45-22.93-11.08-44.14-32.47-47.36ZM93.91,79.17l-.03.07s-.08-.05-.13-.07h.16ZM89.49,78.29c-2.67.07-4.97.31-6.94.66,2.05-1.09,4.45-1.29,6.94-.66ZM80.84,80.16c2.77-.66,6.35-1.07,10.99-1.03.54.25,1.09.53,1.63.86l-.9,1.64c-.78.17-1.22.58-1.46,1.01-2.5-1.75-4.93-2.58-6.26-2.06-.53.2-.85.61-.92,1.15-.17,1.35,1.24,3.43,3.98,5.99l-.14.17c.1.45.29.77.51,1-1.64,1.27-3.42,2.88-5.18,4.88-3.63-2.96-4.41-5.98-4.55-7.52-.21-2.34.65-4.53,2.3-6.09ZM90.81,83.99l-2.38,3.05c-2.76-2.59-3.77-4.34-3.66-5.2.03-.23.14-.38.37-.47.96-.36,3.2.36,5.68,2.13-.03.29-.01.49-.01.49ZM83.21,94.94c1.2.9,2.67,1.78,4.45,2.61-2.24.09-4.34-.03-6.23-.35.59-.8,1.18-1.55,1.78-2.26ZM71.58,90.31c-.37-1.53-.42-3.82,1.41-5.99,1.11-1.32,3.03-2.73,6.32-3.74-1.22,1.61-1.81,3.63-1.62,5.75.15,1.66.98,4.93,4.84,8.09-.68.81-1.36,1.68-2.02,2.61-4.82-1-8.13-3.36-8.93-6.72ZM71.33,133.04l5.27-7.8c1.42,1.35,2.72,2.81,3.9,4.37l-9.12,6.73c.03-1.03.02-2.13-.05-3.3ZM72.06,121.58l-12.3,18.89c-.23-.16-.46-.32-.7-.46l11.88-19.15c.38.23.75.47,1.12.72ZM63.76,145.17c-.09-.18-.19-.36-.28-.53l2.78-4.12,4.2-3.1c-.14,1.94-.45,3.61-.83,5.03l-5.87,2.72ZM69.52,142.86c-.42,1.44-.9,2.61-1.35,3.5l-2.55-1.62-.13-.02,4.03-1.86ZM64.94,144.97l-.71,1.23c-.1-.25-.21-.5-.33-.75l1.04-.48ZM66.8,139.72l3.72-5.49c.03.97.02,1.9-.03,2.77l-3.69,2.72ZM51.18,146.67c-.18.04-.34.09-.5.14l-2.96-6.41c.59-.24,1.21-.44,1.85-.59l1.61,6.86ZM49.88,139.75c.54-.11,1.09-.18,1.64-.21l.24,4.54-.28,2.47-1.6-6.8ZM49.85,145.78l-3.08-4.93c.21-.11.43-.22.65-.32l2.43,5.25ZM48.77,147.28l-4.82-4.34c.42-.43.88-.82,1.36-1.18l3.46,5.52ZM49.02,147.94c-.09.11-.18.22-.26.34l-6.1-3.79c.32-.46.68-.9,1.06-1.32l5.3,4.77ZM48.59,148.55c-.09.16-.18.31-.25.48l-6.8-2.51c.26-.62.58-1.2.94-1.76l6.11,3.79ZM48.23,149.33c-.02.06-.04.12-.06.19l-7.11-1.64c.1-.36.22-.71.36-1.06l6.81,2.51ZM46.17,150.81l-5.55.3c-.01-.52.03-1.03.1-1.55l5.45,1.25ZM47.3,151.07l.67.16c0,.08,0,.17,0,.26l-7.17,1.68c-.1-.57-.17-1.15-.19-1.74l6.68-.36ZM48.02,151.81c.03.19.07.38.12.57l-6.65,3.07c-.26-.63-.46-1.29-.61-1.97l7.14-1.67ZM48.24,152.69c.06.19.14.38.23.56l-5.83,4.31c-.39-.57-.73-1.18-1.02-1.82l6.62-3.05ZM48.63,153.54c.11.18.23.35.36.52l-4.79,5.32c-.5-.48-.96-1-1.37-1.56l5.8-4.28ZM49.21,154.3c.12.12.26.23.4.33l-3.76,6.06c-.5-.32-.97-.69-1.41-1.09l4.77-5.3ZM49.88,154.81s.06.03.09.05l-2.19,6.84c-.58-.24-1.13-.51-1.66-.83l3.76-6.06ZM51.22,156.58l-.88,5.83c-.32-.05-.63-.11-.93-.18l1.81-5.65ZM51.73,155.33c.22,0,.43,0,.63,0l.38,7.21c-.68.03-1.38.01-2.08-.09l1.07-7.12ZM51.84,139.53h.45l-.31,2.64-.14-2.64ZM61.45,154.19l.02.1-1.06-.48,1.04.38ZM57.48,152.39h.74s.43-.62.43-.62l2.23.34.46,1.7-3.86-1.42ZM61.02,151.8l-2.17-.32.71-1.06,2.32-.12-.86,1.5ZM55.95,146.32l-.88.98c-.12-.1-.24-.19-.37-.26l3.56-5.74c.23.14.45.29.67.45l-2.98,4.57ZM54.41,146.9c-.12-.06-.25-.1-.39-.13-.04-.01-.09-.02-.14-.03l2.38-6.45c.6.23,1.18.51,1.73.84l-3.58,5.77ZM53.56,146.68c-.12-.03-.24-.05-.37-.06l.5-4.3.4-2.62c.64.11,1.27.27,1.87.48l-2.4,6.5ZM53.76,139.69l-1.34-.16c.45.01.9.05,1.35.12v.04ZM52.7,155.62l1.06,2.05,1.06,4.56c-.57.14-1.16.24-1.76.28l-.36-6.89ZM54.36,158.85l1.57,3.06c-.26.09-.52.17-.79.24l-.78-3.3ZM55.82,157.95l-1.47-3.2c.18-.1.36-.2.52-.31l4.25,5.75c-.51.38-1.05.73-1.61,1.03l-1.69-3.27ZM55.14,154.26c.17-.12.34-.25.49-.38l5.21,4.69c-.45.51-.94.99-1.47,1.42l-4.23-5.73ZM55.88,153.66l3.4,1.52,2.76,1.72c-.29.5-.63.97-.99,1.42l-5.17-4.66ZM61.48,156.17l.78.35s-.04.06-.06.1l-.72-.45ZM62.07,149.97l-2.28.12.06-.1.54-.48,2.47-.94-.79,1.4ZM70.67,120.68l-11.88,19.16c-.63-.38-1.31-.71-2.01-.97l7.78-21.15c2.15.8,4.2,1.79,6.11,2.96ZM64.26,117.61l-7.78,21.15c-.69-.25-1.42-.44-2.17-.56l3.36-22.28c2.29.36,4.49.93,6.59,1.69ZM57.35,115.87l-3.35,22.27c-.76-.11-1.5-.14-2.24-.13l-1.19-22.5c2.23-.09,4.49.02,6.78.36ZM50.25,115.52l1.19,22.5c-.64.04-1.28.12-1.9.25l-5.15-21.94c1.91-.43,3.87-.71,5.86-.81ZM44.08,116.4l5.14,21.94c-.73.17-1.45.39-2.14.68l-9.45-20.45c2.07-.92,4.22-1.65,6.45-2.17ZM37.34,118.7l9.45,20.45c-.69.32-1.36.69-1.98,1.11l-13.38-18.12c1.85-1.33,3.83-2.48,5.91-3.44ZM31.16,122.32l13.38,18.13c-.61.44-1.19.93-1.72,1.48l-16.76-15.07c1.55-1.68,3.26-3.2,5.1-4.54ZM25.84,127.09l16.75,15.07c-.44.48-.85.99-1.23,1.53l-19.15-11.88c1.09-1.68,2.3-3.26,3.63-4.72ZM22.04,132.08l19.15,11.88c-.42.64-.78,1.32-1.08,2.04l-21.15-7.78c.84-2.17,1.87-4.22,3.08-6.14ZM18.84,138.51l21.15,7.79c-.28.71-.5,1.46-.65,2.24l-22.28-3.36c.39-2.31.99-4.54,1.78-6.67ZM16.96,145.74c.02-.08.03-.16.05-.24l22.28,3.35c-.02.09-.03.17-.05.25-.1.7-.15,1.4-.14,2.09l-22.5,1.19c-.08-2.18.03-4.4.36-6.64ZM16.6,152.7l22.51-1.19c.02.68.1,1.35.22,2.01l-21.94,5.14c-.42-1.94-.69-3.93-.79-5.96ZM17.46,158.97l21.94-5.14c.17.78.41,1.53.71,2.26l-20.45,9.44c-.94-2.09-1.68-4.29-2.2-6.56ZM19.79,165.83l20.45-9.45c.33.73.73,1.43,1.18,2.08l-18.13,13.38c-1.35-1.88-2.53-3.89-3.5-6.01ZM23.48,172.1l18.13-13.38c.46.65.99,1.25,1.57,1.79l-15.06,16.76c-1.72-1.57-3.27-3.3-4.64-5.17ZM28.36,177.48l15.06-16.75c.51.46,1.05.88,1.63,1.25l-11.87,19.15c-1.72-1.08-3.33-2.3-4.82-3.65ZM33.45,181.31l11.87-19.15c.68.41,1.4.76,2.16,1.05l-7.79,21.15c-2.2-.82-4.29-1.85-6.24-3.05ZM40,184.47l7.78-21.15c.74.27,1.52.47,2.33.59l-3.35,22.28c-2.35-.36-4.61-.94-6.76-1.72ZM47.08,186.24l3.35-22.28c.81.1,1.61.14,2.39.1l1.2,22.5c-2.28.12-4.6.01-6.94-.32ZM54.34,186.53l-1.2-22.5c.69-.05,1.37-.16,2.03-.32l5.14,21.94c-1.94.46-3.94.76-5.97.88ZM60.63,185.57l-5.15-21.94c.77-.2,1.52-.48,2.24-.82l9.44,20.46c-2.08.97-4.27,1.75-6.53,2.3ZM67.46,183.13l-9.46-20.46c.71-.36,1.39-.78,2.02-1.26l13.38,18.13c-1.86,1.38-3.85,2.59-5.94,3.59ZM73.65,179.34l-13.38-18.13c.61-.49,1.18-1.03,1.7-1.63l16.75,15.07c-1.54,1.72-3.23,3.29-5.07,4.69ZM78.93,174.4l-16.75-15.06c.42-.51.81-1.06,1.15-1.64l19.16,11.88c-1.05,1.71-2.25,3.32-3.56,4.82ZM82.65,169.3l-19.16-11.88c.29-.52.55-1.06.77-1.62l.88.13.9.14.06-.16,19.49,7.17c-.78,2.19-1.77,4.27-2.94,6.22ZM87.29,156.34c-.33,2.23-.88,4.38-1.6,6.44l-19.47-7.17.97-2.55,20.14,3.03c-.02.08-.02.16-.04.25ZM87.37,155.77l-20.07-3.02.52-1.36-.44-1.38,20.25-1.08c.13,2.25.05,4.53-.26,6.84ZM87.61,148.61l-20.33,1.08v-.06s.23-.58.23-.58c.18-.21.72-.91,1.36-2.13l17.84-4.18c.46,1.91.76,3.87.9,5.87ZM86.64,142.43l-17.58,4.12c.51-1.06,1.07-2.44,1.5-4.17l13.8-6.37c.95,2.05,1.72,4.2,2.28,6.42ZM84.22,135.71l-13.56,6.27c.36-1.5.62-3.24.71-5.23l9.33-6.88c1.35,1.82,2.54,3.78,3.52,5.84ZM88.62,98.85l-1.08-.22-9.48,15.14c-1.08-.74-2.18-1.45-3.33-2.1,1.45-5.61,3.68-10.12,6.16-13.71.29.06.57.11.86.15,2.21.33,4.67.41,7.29.21l-.42.53ZM93.24,93.01l-3.47,4.39c-.08,0-.15,0-.23.02-2.41-.97-4.3-2.03-5.77-3.12,1.81-2.06,3.64-3.69,5.3-4.95.28.07.55.08.75.06,1.12.94,2.39,1.92,3.79,2.95l-.37.65ZM94.04,91.61c-1.34-.98-2.51-1.89-3.52-2.73l.79-1.12c.34-.22.66-.42.97-.6l.55.43c1.13,1.4,2.92,1,2.92,1l-1.71,3.02ZM219.65,172.78l-21.6,1.14c-.06-.47-.18-.92-.34-1.35l21.36-5.01c.32,1.7.52,3.44.58,5.22ZM219,167.25l-21.42,5.02c-.22-.51-.49-.97-.79-1.4l20.5-9.47c.74,1.87,1.31,3.83,1.71,5.85ZM217.17,161.11l-20.58,9.5c-.33-.43-.68-.81-1.02-1.15l18.74-13.84c1.12,1.72,2.07,3.56,2.86,5.49ZM214.14,155.35l-18.81,13.89c-.42-.39-.82-.7-1.13-.92l16.01-17.8c1.46,1.47,2.77,3.09,3.93,4.83ZM209.98,150.29l-16.04,17.84c-.22-.14-.35-.22-.35-.22-.1-.35-.22-.65-.34-.92l12.5-20.16c1.52,1.02,2.93,2.18,4.23,3.46ZM205.49,146.65l-12.42,20.01c-.35-.62-.77-1.01-1.18-1.24l7.98-21.68c1.99.77,3.87,1.75,5.62,2.91ZM193.84,142.16c1.99.3,3.9.8,5.73,1.48l-7.97,21.63c-.69-.3-1.26-.2-1.26-.2l1.08-1.09.2-1.31-1.25-.44,3.03-20.13c.15.02.29.03.44.06ZM193.08,142.06l-3.02,20.06-2.26-.79-1.03-19.36c2.07-.2,4.18-.17,6.31.09ZM185.75,190.74l-.15.99-.76-1.32.34-4.08s.34.1.81.25l-.51,3.42.27.74ZM184.77,197.2v.1s-4.02-1.62-4.02-1.62l2.15-5.85.05.91,2.04,4.6c-.36.52-.43,1.25-.22,1.86ZM177.62,168.14l1.27,1.31-4.52-.38c.02-.98-.12-2.05-.39-3.19l3.64,2.26ZM173.87,165.43c-.13-.54-.29-1.09-.47-1.65l3.3,3.41-2.83-1.76ZM179.8,170.39l1.1,1.14-.54-.04-3.72-1.37,3.16.27ZM180.06,166.93l-8.88-8.97c-.4-.95-.8-1.89-1.18-2.83l12.51,11.84,2.2,2.97-1.44-.12-3.21-2.89ZM183.83,168.22l1.92,1.81-.62-.05-1.3-1.76ZM183.59,178.71c.05.27.11.51.17.74l-11.5,12.79-4.87-1.97,15.69-11.59.51.03ZM183.87,179.81c.13.4.27.74.41,1.03l-8.06,13-3.64-1.47,11.29-12.56ZM184.46,181.16c.38.64.74.95.9,1.07l-.04.11-1.94.7-.71,2.18.19,3.8-2.4,6.54-3.94-1.6,7.94-12.8ZM185.98,191.38l1.01,2.8-1.13-1.99.12-.81ZM186.36,189.91l.46-3.09c.6.17,1.23.33,1.63.39.13.02.27.02.4,0l.48,9-.91-.59-2.06-5.72ZM186.45,142l1.02,19.22-.47-.17-.09.66s-.74-.83-1.72-1.26l-4.07-17.35c1.73-.53,3.52-.9,5.33-1.1ZM180.82,143.19l4.01,17.12c-.26-.08-.52-.13-.79-.12-.86.01-1.29.78-1.51,1.45l-7.38-15.99c1.8-1.01,3.7-1.84,5.67-2.46ZM174.86,145.8l7.55,16.33c-.06.28-.08.48-.08.48l-10.94-11.25-1.5-2.03c1.55-1.34,3.22-2.52,4.97-3.53ZM169.65,149.55l.08.1-.09-.09s.01-.01.01-.01ZM175.44,170.02l3.77,1.39-20.58-1.46c.07-.44.15-.89.23-1.33l16.58,1.4ZM139.86,167.07c-.45.38-.69.68-.69.68l-1.65-.16-.89-1.9-.04-.46,5.17.61c-.81.36-1.46.84-1.9,1.23ZM141.96,140.87l-.16,1.07s-.26,2.3-.18,2.89c.07.6-2.11,5.63-2.11,5.63l-.82.13-5.36,3.13-3.2.72c-7-21.63-19.41-42.74-24.89-51.52,15.49,9.55,28.65,21.88,36.88,30.44-.16,3-.29,5.07-.3,5.14-.04.24.14,2.37.14,2.37ZM142.18,132.19c-8.56-8.84-22.11-21.39-37.96-30.89-1.02-1.6-1.64-2.53-1.71-2.64,12.72,6.43,29.44,20.91,39.82,30.49-.05,1.07-.1,2.09-.15,3.04ZM143.76,180.7c3.01-.39,5.06-2.49,5.98-3.63.07,2.14.29,4.25.66,6.32l-6.64-2.69ZM149.36,167.82h.09s.92.08.92.08c-.05.32-.1.64-.15.95-.2-.27-.49-.64-.86-1.03ZM142.31,98.53c-1.91,3.23-.54,7.46.25,11.1.38,1.72.24,8.22-.01,14.62-25.71-25.54-41.87-33.86-41.87-33.86l2-4.05,1.41.66,1.74-1.53.25-1.3.16-.59c1.89.37,4.16.84,4.33.98.3.23,7.71-5.56,8.45-6.04.74-.47,11.08-8.46,11.54-8.73.45-.27,8.5-3.66,10.29-4.4,1.79-.73,7.02-4.89,7.02-4.89,0,0,1.02,2.67,1.62,3.68.6,1.01,4.2,6.08,7.28,8.39,3.09,2.3,6.28,4.46,6.28,4.46-1.26,3.41.29,4.73.29,4.73-11.34,7.34-19.12,13.54-21.03,16.77ZM156.94,149.9c-.1.45-1.41,2.12-3.02,4.04-.4-.99-.84-1.89-1.18-2.57l2.39-6.45.56.58c.7,1.82,1.38,3.79,1.25,4.4ZM158.24,176.89l15,1.08-14.51,3.4c-.26-1.46-.43-2.96-.49-4.48ZM158.78,181.69l15.54-3.64,5.34.38-19.31,8.92c-.68-1.82-1.21-3.71-1.57-5.66ZM180.32,178.48l2.27.16-15.55,11.48-6.36-2.57,19.64-9.07ZM160.81,188.53l5.42,2.19-3.13,2.31c-.87-1.43-1.63-2.94-2.29-4.5ZM163.27,193.3l3.31-2.44,5.07,2.06-4.69,5.21c-1.37-1.48-2.61-3.09-3.69-4.83ZM167.19,198.36l4.78-5.32,3.79,1.54-4.55,7.33c-1.44-1.06-2.78-2.25-4.02-3.55ZM171.47,202.1l4.59-7.4,4.1,1.66-3.24,8.82c-1.94-.83-3.76-1.87-5.45-3.08ZM177.21,205.3l3.25-8.82,4.17,1.69-1.34,8.91c-2.12-.37-4.15-.97-6.08-1.78ZM184.04,207.22c-.15-.02-.29-.06-.44-.08l1.34-8.85,1.1.45.42-.47c1.48-.1,2.02-1.62,2.02-1.62l.89.33.56,10.51c-1.94.11-3.91.03-5.89-.27ZM190.25,207.48l-.55-10.38.05.02.24-.46-.33-.22-.49-9.28c.79-.19,1.52-.73,1.52-.73l.25-.05,4.73,20.2c-1.76.47-3.58.78-5.42.9ZM195.99,206.5l-4.74-20.18,2.13-.43,8.46,18.32c-1.86.97-3.83,1.74-5.85,2.29ZM202.13,204.06l-8.42-18.23.32-.07.71.5-.11,1.43.55.09,1.2-2.02,10.95,14.82c-1.63,1.34-3.37,2.5-5.2,3.48ZM207.57,200.38l-11.01-14.92.12-.19-.31-1.33,1.47-.59,14.06,12.65c-1.31,1.6-2.76,3.07-4.33,4.38ZM212.1,195.75l-13.93-12.53,1.05-.42.15-.98-1.81-.94-.75.55-.49-1.02s.14-.16.34-.47l18.42,11.43c-.88,1.55-1.88,3.01-2.98,4.38ZM215.24,191.09l-18.41-11.42c.22-.37.48-.88.71-1.52l20.17,7.43c-.67,1.93-1.5,3.77-2.47,5.51ZM217.81,185.27l-20.17-7.42c.16-.48.29-1.03.37-1.63l21.23,3.19c-.31,2.03-.8,3.99-1.43,5.86ZM219.29,179.1l-21.25-3.2c.05-.51.07-1.04.04-1.62v-.04l21.57-1.14c.05,1.97-.06,3.97-.36,6Z"/>
  <g>
    <path class="cls-1" d="M5.75,198.49v-1.87c0-.85-.42-1.27-1.25-1.27h-.44c-.81,0-1.22.42-1.22,1.27v3.53c0,.4.08.66.24.8.16.14.42.32.77.53l2.7,1.45c.59.34,1.01.6,1.26.79.25.19.44.42.58.68.14.27.21.78.21,1.53v4.54c0,2.39-1.15,3.59-3.44,3.59h-1.75c-2.27,0-3.41-1.3-3.41-3.91v-1.07h2.85v1.16c0,.83.42,1.25,1.27,1.25h.5c.75,0,1.13-.42,1.13-1.25v-3.62c0-.4-.08-.66-.24-.8-.16-.14-.42-.32-.77-.53l-2.7-1.51c-.59-.32-1.02-.58-1.29-.8-.27-.22-.46-.5-.58-.84-.12-.35-.18-.8-.18-1.35v-4.36c0-2.43,1.14-3.65,3.41-3.65h1.78c2.27,0,3.41,1.21,3.41,3.65v2.08h-2.85Z"/>
    <path class="cls-1" d="M20.22,192.77v17.25c0,2.69-1.15,4.03-3.44,4.03h-2.4c-2.27,0-3.41-1.35-3.41-4.06v-17.22h2.85v17.31c0,.93.42,1.39,1.25,1.39h1.16c.77,0,1.16-.46,1.16-1.39v-17.31h2.85Z"/>
    <path class="cls-1" d="M27.27,206.26v-2.58h4.33v10.38h-5.57c-2.19,0-3.29-1.2-3.29-3.59v-14.05c0-2.43,1.1-3.65,3.29-3.65h1.96c2.41,0,3.62,1.24,3.62,3.71v2.31h-2.85v-1.9c0-1.03-.41-1.54-1.22-1.54h-.71c-.83,0-1.25.51-1.25,1.54v13.04c0,1.03.42,1.54,1.25,1.54h1.93v-5.22h-1.48Z"/>
    <path class="cls-1" d="M42.64,195.42c-2.56-.54-5.02-1.29-7.37-2.24-1,.55-1.5,1.63-1.5,3.24v17.64h2.85v-7.8h3.26v7.8h2.84v-17.64c0-.36-.02-.7-.08-1ZM39.88,203.68h-3.26v-7.08c0-.83.41-1.25,1.24-1.25h.77c.83,0,1.25.42,1.25,1.25v7.08Z"/>
    <path class="cls-1" d="M52.39,205.19c1.12-.49,1.69-1.67,1.69-3.52v-5.28c-.96.04-1.92.05-2.89.02.03.15.04.31.04.48v4.6c0,1.03-.42,1.54-1.27,1.54h-1.87v-6.79c-.91-.07-1.81-.18-2.72-.32-.04-.01-.09-.01-.13-.02v18.16h2.85v-8.6h1.72l1.87,8.6h2.69l-1.98-8.87Z"/>
    <path class="cls-1" d="M67.8,203.12v-.15c1.37-.28,2.05-1.03,2.05-2.25v-4.09c0-1.54-.46-2.62-1.37-3.24-2.35.91-4.79,1.63-7.29,2.13v18.54h5.72c2.16,0,3.24-1.06,3.24-3.17v-5.34c0-1.19-.79-2-2.35-2.43ZM64.04,195.35h1.69c.85,0,1.27.51,1.27,1.54v3.32c0,1.03-.54,1.54-1.63,1.54h-1.33v-6.4ZM67.3,210.56c0,.61-.38.92-1.13.92h-2.13v-7.15h1.57c1.13,0,1.69.51,1.69,1.52v4.71Z"/>
    <path class="cls-1" d="M75.21,214.06h-2.85v-17.64c0-2.43,1.14-3.65,3.41-3.65h2.13c2.27,0,3.41,1.21,3.41,3.65v17.64h-2.85v-7.8h-3.26v7.8ZM78.47,203.68v-7.09c0-.83-.42-1.25-1.25-1.25h-.77c-.83,0-1.25.42-1.25,1.25v7.09h3.26Z"/>
    <path class="cls-1" d="M88.23,206.26v-2.58h4.33v10.38h-5.57c-2.19,0-3.29-1.2-3.29-3.59v-14.05c0-2.43,1.1-3.65,3.29-3.65h1.96c2.41,0,3.62,1.24,3.62,3.71v2.31h-2.85v-1.9c0-1.03-.41-1.54-1.22-1.54h-.71c-.83,0-1.25.51-1.25,1.54v13.04c0,1.03.42,1.54,1.25,1.54h1.93v-5.22h-1.48Z"/>
    <path class="cls-1" d="M99.61,192.77h5.57c2.17,0,3.26,1.21,3.26,3.65v5.25c0,1.86-.56,3.03-1.69,3.53l1.99,8.86h-2.7l-1.87-8.6h-1.72v8.6h-2.85v-21.29ZM102.46,203.03h1.87c.85,0,1.28-.51,1.28-1.54v-4.6c0-1.03-.43-1.54-1.28-1.54h-1.87v7.68Z"/>
    <path class="cls-1" d="M114.11,214.06c-2.29,0-3.44-1.21-3.44-3.62v-14.02c0-2.43,1.14-3.65,3.41-3.65h2.73c2.27,0,3.41,1.21,3.41,3.65v14.02c0,2.41-1.15,3.62-3.44,3.62h-2.67ZM114.79,211.48h1.45c.75,0,1.13-.42,1.13-1.25v-13.64c0-.83-.42-1.25-1.27-1.25h-1.33c-.83,0-1.25.42-1.25,1.25v13.64c0,.83.42,1.25,1.27,1.25Z"/>
    <path class="cls-1" d="M125.43,214.06h-2.85v-17.64c0-2.43,1.14-3.65,3.41-3.65h2.13c2.27,0,3.41,1.21,3.41,3.65v17.64h-2.85v-7.8h-3.26v7.8ZM128.69,203.68v-7.09c0-.83-.42-1.25-1.25-1.25h-.77c-.83,0-1.25.42-1.25,1.25v7.09h3.26Z"/>
    <path class="cls-1" d="M134.06,214.06v-21.29h4.95c2.67,0,4,1.36,4,4.09v14.11c0,2.06-1.14,3.08-3.41,3.08h-5.54ZM136.91,211.48h2.13c.75,0,1.13-.32,1.13-.95v-13.64c0-1.03-.42-1.54-1.27-1.54h-1.99v16.13Z"/>
  </g>
  <g>
    <path class="cls-2" d="M6.9,232.79l2.64-12.51h3.14v21.29h-2.85l.3-13.93-2.13,10.08h-2.19l-2.13-10.08.3,13.93H1.11v-21.29h3.14l2.64,12.51Z"/>
    <path class="cls-2" d="M18.64,241.57c-2.29,0-3.44-1.21-3.44-3.62v-14.02c0-2.43,1.14-3.65,3.41-3.65h2.73c2.27,0,3.41,1.21,3.41,3.65v14.02c0,2.41-1.15,3.62-3.44,3.62h-2.67ZM19.32,238.99h1.45c.75,0,1.13-.42,1.13-1.25v-13.64c0-.83-.43-1.25-1.27-1.25h-1.33c-.83,0-1.25.42-1.25,1.25v13.64c0,.83.42,1.25,1.27,1.25Z"/>
    <path class="cls-2" d="M36.51,220.28v17.25c0,2.69-1.15,4.03-3.44,4.03h-2.4c-2.27,0-3.41-1.35-3.41-4.06v-17.22h2.85v17.31c0,.93.42,1.39,1.25,1.39h1.16c.77,0,1.16-.46,1.16-1.39v-17.31h2.85Z"/>
    <path class="cls-2" d="M45.08,230.57v-10.29h2.85v21.29h-2.85v-4.24l-3.05-9.69v13.93h-2.85v-21.29h2.85l3.05,10.29Z"/>
    <path class="cls-2" d="M55.13,222.86v18.71h-2.85v-18.71h-2.73v-2.58h8.3v2.58h-2.73Z"/>
    <path class="cls-2" d="M62.19,241.57h-2.85v-17.64c0-2.43,1.14-3.65,3.41-3.65h2.13c2.27,0,3.41,1.21,3.41,3.65v17.64h-2.85v-7.8h-3.26v7.8ZM65.45,231.19v-7.09c0-.83-.42-1.25-1.25-1.25h-.77c-.83,0-1.25.42-1.25,1.25v7.09h3.26Z"/>
    <path class="cls-2" d="M70.81,241.57v-21.29h2.85v21.29h-2.85Z"/>
    <path class="cls-2" d="M82.23,230.57v-10.29h2.85v21.29h-2.85v-4.24l-3.05-9.69v13.93h-2.85v-21.29h2.85l3.05,10.29Z"/>
    <path class="cls-2" d="M99.1,230.63c1.56.43,2.34,1.25,2.34,2.43v5.34c0,2.12-1.08,3.17-3.23,3.17h-5.72v-21.29h4.86c2.53,0,3.79,1.28,3.79,3.85v4.09c0,1.23-.68,1.98-2.05,2.25v.15ZM95.33,229.27h1.33c1.09,0,1.63-.51,1.63-1.54v-3.32c0-1.03-.43-1.54-1.27-1.54h-1.69v6.4ZM95.33,238.99h2.13c.75,0,1.13-.31,1.13-.92v-4.71c0-1.01-.56-1.51-1.69-1.51h-1.57v7.15Z"/>
    <path class="cls-2" d="M103.81,241.57v-21.29h2.85v21.29h-2.85Z"/>
    <path class="cls-2" d="M112.17,241.57h-2.85v-21.29h2.85v21.29ZM118.72,241.57h-2.85l-3.56-10.41v-.18l2.96-10.7h2.61l-2.99,10.58,3.82,10.7Z"/>
    <path class="cls-2" d="M120.35,241.57v-21.29h7.06v2.58h-4.21v6.46h3.74v2.58h-3.74v7.09h4.21v2.58h-7.06Z"/>
  </g>
  <text class="cls-3" transform="translate(108.4 252.99)"><tspan x="0" y="0">Trails</tspan></text>
</svg>